<svg width="28" height="28" viewBox="0 0 28 28" fill="none" xmlns="http://www.w3.org/2000/svg">
<path d="M16.3502 14.0001L26.8502 3.51673C27.1641 3.20289 27.3404 2.77723 27.3404 2.3334C27.3404 1.88956 27.1641 1.4639 26.8502 1.15006C26.5364 0.836225 26.1107 0.659912 25.6669 0.659912C25.2231 0.659912 24.7974 0.836225 24.4836 1.15006L14.0002 11.6501L3.51689 1.15006C3.20305 0.836225 2.77739 0.659913 2.33356 0.659913C1.88972 0.659913 1.46406 0.836225 1.15022 1.15006C0.836384 1.4639 0.660071 1.88956 0.660071 2.3334C0.660071 2.77723 0.836384 3.20289 1.15022 3.51673L11.6502 14.0001L1.15022 24.4834C0.99401 24.6383 0.87002 24.8227 0.785405 25.0258C0.700791 25.2289 0.657227 25.4467 0.657227 25.6667C0.657227 25.8867 0.700791 26.1046 0.785405 26.3077C0.87002 26.5108 0.99401 26.6951 1.15022 26.8501C1.30516 27.0063 1.4895 27.1303 1.6926 27.2149C1.89569 27.2995 2.11354 27.3431 2.33356 27.3431C2.55358 27.3431 2.77142 27.2995 2.97452 27.2149C3.17762 27.1303 3.36195 27.0063 3.51689 26.8501L14.0002 16.3501L24.4836 26.8501C24.6385 27.0063 24.8228 27.1303 25.0259 27.2149C25.229 27.2995 25.4469 27.3431 25.6669 27.3431C25.8869 27.3431 26.1048 27.2995 26.3079 27.2149C26.511 27.1303 26.6953 27.0063 26.8502 26.8501C27.0064 26.6951 27.1304 26.5108 27.215 26.3077C27.2997 26.1046 27.3432 25.8867 27.3432 25.6667C27.3432 25.4467 27.2997 25.2289 27.215 25.0258C27.1304 24.8227 27.0064 24.6383 26.8502 24.4834L16.3502 14.0001Z" fill="url(#paint0_linear_60_4)"/>
<defs>
<linearGradient id="paint0_linear_60_4" x1="-3.001" y1="7.48882" x2="30.8973" y2="0.938943" gradientUnits="userSpaceOnUse">
<stop stop-color="#8225C4"/>
<stop offset="0.317708" stop-color="#B516A8"/>
<stop offset="0.625" stop-color="#D80C95"/>
<stop offset="1" stop-color="#F50081"/>
</linearGradient>
</defs>
</svg>
